<?xml version="1.0" encoding="utf-8"?>
<!-- Generator: Adobe Illustrator 16.0.0, SVG Export Plug-In . SVG Version: 6.00 Build 0)  -->
<!DOCTYPE svg PUBLIC "-//W3C//DTD SVG 1.1//EN" "http://www.w3.org/Graphics/SVG/1.1/DTD/svg11.dtd">
<svg version="1.1" xmlns="http://www.w3.org/2000/svg" xmlns:xlink="http://www.w3.org/1999/xlink" x="0px" y="0px" width="105px"
	 height="96.333px" viewBox="0 0 105 96.333" enable-background="new 0 0 105 96.333" xml:space="preserve">
<g id="truck" display="none">
	<g display="inline">
		<g>
			<path fill="#903F98" d="M90.017,66.875c-0.135,1.735-0.835,3.002-2.101,3.802L54.801,88.986c-0.6,0.533-1.368,0.8-2.301,0.8
				c-0.935,0-1.701-0.267-2.301-0.8L17.184,70.677c-1.335-0.8-2.068-2.066-2.201-3.802V29.359c0.133-1.667,0.866-2.901,2.201-3.702
				L50.199,7.348c0.6-0.532,1.366-0.8,2.301-0.8c0.933,0,1.701,0.268,2.301,0.8l33.115,18.309c1.266,0.801,1.966,2.035,2.101,3.702
				V66.875z"/>
		</g>
	</g>
</g>
<g id="cup" display="none">
	<g display="inline">
		<g>
			<path fill="#903F98" d="M44.382,81.042H27.745v-16.24h32.874v-8.516H35.864c-2.247-0.129-4.158-0.922-5.742-2.375
				c-1.585-1.453-2.377-3.367-2.377-5.744V23.412c0.129-2.243,0.922-4.158,2.377-5.741c1.45-1.586,3.366-2.377,5.742-2.377h8.518
				V6.777h16.237v8.517h16.636v16.237H44.382v8.515h24.754c2.242,0.135,4.156,0.926,5.741,2.379
				c1.585,1.453,2.378,3.365,2.378,5.742v24.756c-0.134,2.246-0.926,4.156-2.378,5.74c-1.455,1.586-3.368,2.379-5.741,2.379h-8.517
				v8.514H44.382V81.042z"/>
		</g>
	</g>
</g>
<g id="house" display="none">
	<g display="inline">
		<g>
			<path fill="#903F98" d="M21.317,1.838l4.343,9.133h68.713c1.261,0.222,2.339,0.742,3.229,1.559
				c0.891,0.818,1.337,1.893,1.337,3.23c0,0.742-0.223,1.447-0.669,2.115L81.789,47.945c-0.966,1.41-2.116,2.561-3.453,3.451
				c-1.336,0.891-2.896,1.336-4.677,1.336H39.136l-4.121,7.574c-0.149,0.148-0.223,0.371-0.223,0.668
				c0,0.744,0.371,1.113,1.114,1.113h53.679v9.355H33.901c-2.673-0.074-4.864-1.002-6.571-2.785
				c-1.709-1.781-2.561-3.971-2.561-6.57c0-1.633,0.371-3.08,1.114-4.344l6.236-11.582l-16.705-35.19H6.06V1.838H21.317z
				 M40.583,78.57c1.854,1.709,2.746,3.936,2.673,6.682c-0.075,2.746-0.966,4.973-2.673,6.682c-1.709,1.709-3.936,2.563-6.682,2.563
				c-2.748,0-4.938-0.854-6.571-2.563c-1.634-1.709-2.488-3.936-2.561-6.682c-0.075-2.746,0.779-4.973,2.561-6.682
				c1.782-1.707,3.971-2.563,6.571-2.563C36.5,76.007,38.727,76.863,40.583,78.57z M87.023,78.57
				c1.782,1.709,2.634,3.936,2.561,6.682c-0.075,2.746-0.929,4.973-2.561,6.682c-1.634,1.709-3.825,2.563-6.571,2.563
				c-2.748,0-4.975-0.854-6.682-2.563c-1.708-1.709-2.6-3.936-2.673-6.682c-0.075-2.746,0.779-4.973,2.562-6.682
				c1.782-1.707,4.046-2.563,6.793-2.563C83.05,76.007,85.242,76.863,87.023,78.57z"/>
		</g>
	</g>
</g>
<g id="cloud" display="none">
	<g display="inline">
		<g>
			<path fill="#903F98" d="M97.45,3.218v40.521c0.071,2.307-0.829,4.359-2.701,6.158c-1.874,1.803-3.927,2.701-6.159,2.701h-9.941
				c-0.793,4.611-2.882,8.574-6.267,11.887c-3.387,3.314-8.537,5.402-15.453,6.268v9.293c4.971,0.578,8.5,1.945,10.59,4.105
				c2.089,2.162,3.061,4.719,2.917,7.672v1.297H34.561v-1.297c-0.216-2.953,0.757-5.51,2.917-7.672
				c2.161-2.16,5.69-3.527,10.59-4.105v-9.293c-6.988-0.865-12.14-2.953-15.452-6.268c-3.314-3.313-5.403-7.275-6.268-11.887h-9.941
				c-2.306,0.074-4.359-0.826-6.159-2.701c-1.801-1.871-2.701-3.926-2.701-6.158V3.218h17.938c2.161-0.07,4.177,0.828,6.051,2.701
				c1.873,1.873,2.88,3.926,3.025,6.16h35.875c0.071-2.305,1.081-4.359,3.026-6.16c1.945-1.799,3.96-2.701,6.051-2.701h9.941H97.45z
				"/>
		</g>
	</g>
</g>
<g id="suitcase" display="none">
	<g display="inline">
		<g>
			<path fill="#903F98" d="M81.613,25.305c2.334,0,4.335,0.801,6.003,2.401c1.667,1.601,2.467,3.602,2.401,6.003v50.021
				c0,2.334-0.801,4.303-2.401,5.902c-1.601,1.602-3.602,2.367-6.003,2.301H23.387c-2.468,0-4.502-0.766-6.103-2.301
				s-2.368-3.5-2.301-5.902V33.709c0-2.467,0.766-4.503,2.301-6.104c1.534-1.601,3.567-2.366,6.103-2.301h8.204
				c0.133-5.868,2.201-10.805,6.203-14.807c4.002-4.002,8.904-6.035,14.707-6.103c5.868,0.134,10.805,2.168,14.807,6.103
				c4.001,3.937,6.036,8.871,6.103,14.807H81.613z M52.5,12.799c-3.536,0.135-6.47,1.368-8.804,3.702
				c-2.335,2.335-3.569,5.27-3.702,8.804h25.011c-0.134-3.534-1.368-6.469-3.702-8.804C58.968,14.167,56.034,12.934,52.5,12.799z"/>
		</g>
	</g>
</g>
<g id="pin">
	<g>
		<g>
			<path fill="#903F98" d="M25.388,87.736c-1.601,0-3.036-0.436-4.302-1.301c-1.268-0.867-2.335-1.934-3.201-3.201L6.979,43.716
				l-0.4-1.902c0.133-1.199,0.6-2.166,1.4-2.9c0.8-0.735,1.767-1.134,2.901-1.202H29.79l19.409-27.313
				c0.8-1.199,1.901-1.801,3.302-1.801c1.4,0,2.566,0.602,3.501,1.801L75.21,37.711h18.909c1.201,0,2.167,0.401,2.901,1.202
				c0.733,0.801,1.201,1.768,1.401,2.9l-0.2,1.4l-11.105,40.02c-0.801,1.334-1.835,2.4-3.102,3.201
				c-1.268,0.801-2.701,1.232-4.302,1.301H25.388z M52.5,19.903L39.994,37.711h25.011L52.5,19.903z"/>
		</g>
	</g>
</g>
</svg>
