<?xml version="1.0" encoding="utf-8"?>
<!-- Generator: Adobe Illustrator 16.0.0, SVG Export Plug-In . SVG Version: 6.00 Build 0)  -->
<!DOCTYPE svg PUBLIC "-//W3C//DTD SVG 1.1//EN" "http://www.w3.org/Graphics/SVG/1.1/DTD/svg11.dtd">
<svg xmlns="http://www.w3.org/2000/svg" xmlns:xlink="http://www.w3.org/1999/xlink" version="1.1" id="Layer_1" x="0px" y="0px" width="100px" height="100px" viewBox="0 0 100 100" enable-background="new 0 0 100 100" xml:space="preserve">
<g>
			<path fill="#BCBEC0" d="M19.085,16.02h12.506l8.404-8.204h25.011l8.404,8.204h12.506c2.334,0.134,4.302,0.967,5.903,2.501
				c1.601,1.535,2.367,3.501,2.301,5.902v50.022c0,2.336-0.768,4.303-2.301,5.903c-1.535,1.601-3.502,2.436-5.903,2.501H19.085
				c-2.335-0.133-4.302-0.966-5.902-2.501c-1.601-1.534-2.369-3.502-2.301-5.903V24.423c0-2.334,0.766-4.302,2.301-5.902
				C14.716,16.92,16.684,16.086,19.085,16.02z"/>
	</g>
</svg>
