<?xml version="1.0" encoding="utf-8"?>
<!-- Generator: Adobe Illustrator 16.0.0, SVG Export Plug-In . SVG Version: 6.00 Build 0)  -->
<!DOCTYPE svg PUBLIC "-//W3C//DTD SVG 1.1//EN" "http://www.w3.org/Graphics/SVG/1.1/DTD/svg11.dtd">
<svg xmlns="http://www.w3.org/2000/svg" xmlns:xlink="http://www.w3.org/1999/xlink" version="1.1" id="Layer_1" x="0px" y="0px" width="100px" height="100px" viewBox="0 0 100 100" enable-background="new 0 0 100 100" xml:space="preserve">
	<g>

			<path fill="#BCBEC0" d="M96.799,41.633c3.666,3.867,5.566,8.602,5.701,14.201c-0.068,5.799-2.068,10.699-6,14.699
				c-3.936,4-8.9,6.068-14.9,6.201H27.5c-7.068-0.201-12.968-2.666-17.701-7.4c-4.734-4.732-7.166-10.6-7.299-17.6
				C2.699,45.068,4.865,39.469,9,34.934c4.133-4.533,9.399-7.266,15.799-8.2c2.733-5.066,6.5-9.101,11.301-12.101
				c4.8-3,10.266-4.565,16.4-4.7c7.665,0.067,14.299,2.468,19.899,7.2c5.601,4.734,9.2,10.734,10.8,18
				C88.6,35.602,93.133,37.768,96.799,41.633z"/>

	</g>
</svg>
