<?xml version="1.0" encoding="utf-8"?>
<!-- Generator: Adobe Illustrator 16.0.0, SVG Export Plug-In . SVG Version: 6.00 Build 0)  -->
<!DOCTYPE svg PUBLIC "-//W3C//DTD SVG 1.1//EN" "http://www.w3.org/Graphics/SVG/1.1/DTD/svg11.dtd">
<svg xmlns="http://www.w3.org/2000/svg" xmlns:xlink="http://www.w3.org/1999/xlink" version="1.1" id="Layer_1" x="0px" y="0px" width="100px" height="100px" viewBox="0 0 100 100" enable-background="new 0 0 100 100" xml:space="preserve">
	<g>
			<path fill="#BCBEC0" d="M90.513,14.284c1.656,1.729,2.484,3.925,2.484,6.588v13.5c0.071,2.592-0.756,4.717-2.484,6.372
				c-1.728,1.656-3.852,2.483-6.372,2.483H75.07v13.5c-0.145,5.185-1.909,9.469-5.292,12.853c-3.385,3.385-7.598,5.148-12.636,5.292
				h-27c-5.184-0.144-9.468-1.907-12.852-5.292c-3.385-3.384-5.148-7.668-5.292-12.853V11.799h72.144
				C86.733,11.729,88.856,12.556,90.513,14.284z M84.142,20.872H75.07v13.5h9.072V20.872z"/>
	</g>
</svg>
