<?xml version="1.0" encoding="utf-8"?>
<!-- Generator: Adobe Illustrator 16.0.0, SVG Export Plug-In . SVG Version: 6.00 Build 0)  -->
<!DOCTYPE svg PUBLIC "-//W3C//DTD SVG 1.1//EN" "http://www.w3.org/Graphics/SVG/1.1/DTD/svg11.dtd">
<svg xmlns="http://www.w3.org/2000/svg" xmlns:xlink="http://www.w3.org/1999/xlink" version="1.1" id="Layer_1" x="0px" y="0px" width="100px" height="100px" viewBox="0 0 100 100" enable-background="new 0 0 100 100" xml:space="preserve">
	<g>
			<path fill="#BCBEC0" d="M88.431,24.034c0.466,5.2-0.267,10.267-2.2,15.201c-2,5.133-4.234,10.1-6.7,14.898
				c-2.467,4.801-5.234,9.4-8.3,13.801c-2.6,3.734-5.4,7.434-8.4,11.1s-6.467,5.633-10.4,5.9c-3.867-0.334-7.267-2.301-10.2-5.9
				c-2.934-3.6-5.667-7.299-8.2-11.1c-3.134-4.533-5.9-9.199-8.3-14c-2.4-4.801-4.634-9.666-6.7-14.6
				c-2.067-4.934-2.9-10.034-2.5-15.3c0.4-5.266,2.666-9.833,6.8-13.7c3.933-3.266,8.233-5.5,12.9-6.7c0.866-0.2,2.866-0.565,6-1.1
				c3.133-0.533,6.266-0.8,9.4-0.8h1.6c3.133,0,6.233,0.267,9.3,0.8c3.065,0.534,4.965,0.899,5.7,1.1c5.066,1.2,9.5,3.435,13.3,6.7
				C85.664,14.268,87.963,18.833,88.431,24.034z"/>
	</g>
</svg>
