<?xml version="1.0" encoding="utf-8"?>
<!-- Generator: Adobe Illustrator 16.0.0, SVG Export Plug-In . SVG Version: 6.00 Build 0)  -->
<!DOCTYPE svg PUBLIC "-//W3C//DTD SVG 1.1//EN" "http://www.w3.org/Graphics/SVG/1.1/DTD/svg11.dtd">
<svg xmlns="http://www.w3.org/2000/svg" xmlns:xlink="http://www.w3.org/1999/xlink" version="1.1" id="Layer_1" x="0px" y="0px" width="100px" height="100px" viewBox="0 0 100 100" enable-background="new 0 0 100 100" xml:space="preserve">
<g>

			<path fill="#BCBEC0" d="M41.851,2.162c1.2,0.134,5.368,2.435,12.505,6.902c7.136,4.47,10.271,10.905,9.404,19.31
				c0.933-0.4,3.435,0.199,7.503,1.801c4.067,1.601,4.702,5.802,1.901,12.605c0.8-0.065,3.501,0.9,8.104,2.901
				c4.602,2.001,6.135,6.402,4.602,13.206v3.302c2.867,1.135,5.635,3.469,8.304,7.003c2.667,3.536,0.866,7.971-5.402,13.306
				C79.9,87.966,70.529,89.701,60.659,87.7c-9.872-2.001-17.175-3.401-21.91-4.201c-4.269,0.133-8.271,0.633-12.005,1.5
				c-3.736,0.866-6.67,1.366-8.804,1.501c-2.135,0.133-4.069-0.867-5.803-3.001c-1.735-2.136-2.568-5.269-2.501-9.404
				c0.266-4.202,1.833-7.337,4.702-9.404c2.867-2.066,5.468-3.102,7.804-3.102c-1.068-0.266-2.301-2.667-3.702-7.203
				c-1.401-4.535,2.566-9.037,11.905-13.507c-0.667-0.532-1.335-2.801-2.001-6.802c-0.667-4.002,2.801-7.336,10.405-10.005
				c-0.268,0-0.8-0.833-1.601-2.501c-0.8-1.666-0.235-3.602,1.701-5.803c1.934-2.201,2.934-4.435,3.001-6.703
				C41.916,6.798,41.916,4.497,41.851,2.162z"/>

	</g>


</svg>
