<?xml version="1.0" encoding="utf-8"?>
<!-- Generator: Adobe Illustrator 16.0.0, SVG Export Plug-In . SVG Version: 6.00 Build 0)  -->
<!DOCTYPE svg PUBLIC "-//W3C//DTD SVG 1.1//EN" "http://www.w3.org/Graphics/SVG/1.1/DTD/svg11.dtd">
<svg version="1.1" xmlns="http://www.w3.org/2000/svg" xmlns:xlink="http://www.w3.org/1999/xlink" x="0px" y="0px"
	 width="123.667px" height="108.667px" viewBox="0 0 123.667 108.667" enable-background="new 0 0 123.667 108.667"
	 xml:space="preserve">
<g id="baloon" display="none">
	<g display="inline">
		<path fill="#27AAE1" d="M23.522,35.315c0.152-7.638,2.177-13.749,6.073-18.332C33.49,12.4,38.722,8.582,45.291,5.526
			c-2.292,4.508-4.087,9.663-5.385,15.468c-1.299,5.805-1.987,12.183-2.062,19.133c-0.077,6.951,0.61,14.017,2.062,21.195
			c1.45,7.18,3.246,13.139,5.385,17.873c-6.569-3.59-11.801-9.776-15.696-18.561C25.7,51.853,23.675,43.412,23.522,35.315z
			 M61.79,1.746c3.437,0,6.72,0.459,9.853,1.374c2.825,3.82,5.079,8.937,6.76,15.353c1.679,6.416,2.481,13.596,2.406,21.54
			c0,5.347-0.421,10.731-1.26,16.154c-0.842,5.424-1.987,11.152-3.438,17.186c0,2.674-0.917,4.966-2.75,6.874
			c-1.833,1.91-4.124,2.826-6.874,2.749h-9.395c-2.674,0-4.966-0.916-6.875-2.749c-1.91-1.834-2.826-4.124-2.749-6.874
			c-1.452-6.109-2.598-11.839-3.438-17.186c-0.841-5.346-1.26-10.73-1.26-16.154c0-7.944,0.84-15.124,2.521-21.54
			C46.97,12.057,49.187,6.94,51.937,3.12C55.067,2.205,58.353,1.746,61.79,1.746z M57.092,106.922
			c-2.674-0.154-4.966-1.108-6.875-2.864c-1.91-1.758-2.826-4.011-2.749-6.761v-9.623H76.11v9.623c0,2.674-0.917,4.927-2.75,6.761
			c-1.833,1.833-4.124,2.787-6.874,2.864H57.092z M100.056,35.315c-0.154,8.02-2.177,16.46-6.072,25.319
			c-3.896,8.861-9.09,15.049-15.582,18.561c2.214-4.657,3.971-10.616,5.271-17.873c1.298-7.256,1.985-14.321,2.062-21.195
			c0.076-6.874-0.612-13.251-2.062-19.133c-1.452-5.882-3.208-11.037-5.271-15.468c6.568,2.979,11.762,6.799,15.582,11.457
			C97.802,21.644,99.827,27.753,100.056,35.315z"/>
	</g>
</g>
<g id="play" display="none">
	<g display="inline">
		<path fill="#27AAE1" d="M92.737,52.186c1.856,1.182,1.856,3.115,0,4.297l-59.913,38.15c-1.856,1.182-3.374,0.349-3.374-1.852
			V15.887c0-2.2,1.518-3.033,3.374-1.852L92.737,52.186z"/>
	</g>
</g>
<g id="rewind" display="none">
	<path display="inline" fill="#27AAE1" d="M109.987,52.186l-59.913-38.15c-1.856-1.182-3.374-0.349-3.374,1.852v17.969
		l-31.126-19.82c-1.856-1.182-3.374-0.349-3.374,1.852v76.895c0,2.2,1.518,3.033,3.374,1.852L46.7,74.813v17.969
		c0,2.2,1.518,3.033,3.374,1.852l59.913-38.15C111.843,55.301,111.843,53.367,109.987,52.186z"/>
</g>
<g id="speaker">
	<g>
		<path fill="#27AAE1" d="M47.73,37.16L76.444,8.447v91.773L47.73,71.508H24.925V37.16H47.73z M93.185,72.791
			c-3.281,5.227-7.902,9.176-13.854,11.848V23.752c5.833,2.799,10.451,6.867,13.854,12.215c3.399,5.35,5.225,11.484,5.469,18.412
			C98.29,61.426,96.465,67.566,93.185,72.791z"/>
	</g>
</g>
<g id="soundcloud" display="none">
	<g display="inline">
		<path fill="#27AAE1" d="M6.743,56.228v20.239c-3.048-2.611-4.658-5.961-4.831-10.055C2.085,62.233,3.695,58.84,6.743,56.228z
			 M15.752,53.224h0.915v26.508h-0.915c-1.566,0-2.872-0.174-3.917-0.523V53.746C12.88,53.399,14.186,53.224,15.752,53.224z
			 M26.851,46.304v33.428h-5.092V54.792l1.045,0.391C23.499,51.787,24.848,48.829,26.851,46.304z M36.906,39.122v40.609h-4.832
			v-38.26C33.38,40.429,34.99,39.645,36.906,39.122z M43.695,37.946c1.045,0,2.089,0.088,3.134,0.262v41.523h-4.832V37.946H43.695z
			 M57.015,37.946v41.785h-7.704V38.86c1.914,0.35,3.699,1.045,5.353,2.09C55.359,39.905,56.144,38.905,57.015,37.946z
			 M76.339,28.937c6.79,0.176,12.535,2.396,17.236,6.66c4.701,4.266,7.485,9.62,8.356,16.061c1.653-0.695,3.526-1.045,5.615-1.045
			c4.179,0.088,7.529,1.482,10.054,4.18c2.524,2.697,3.872,6.094,4.048,10.185c0.173,4.093-0.959,7.442-3.396,10.054
			c-2.438,2.611-6.182,4.178-11.229,4.701h-47.53V35.335C64.108,31.245,69.723,29.112,76.339,28.937z"/>
	</g>
</g>
<g id="pig" display="none">
	<g display="inline">
		<path fill="#27AAE1" d="M61.772,20.646l2.901,0.199c2-1.666,4.135-3.134,6.402-4.401c2.268-1.267,4.303-2.134,6.104-2.602
			c4.334-1.066,9.004-1.133,14.006-0.2c5.002,0.936,8.17,3.069,9.504,6.403c0.533,2.468-0.1,5.036-1.9,7.703
			c-1.801,2.669-4.369,5.003-7.703,7.004c2.602,3.201,4.635,6.803,6.103,10.805c1.466,4.002,2.167,8.203,2.101,12.605
			c-0.268,10.672-3.901,19.543-10.904,26.612c-7.004,7.068-15.875,10.705-26.612,10.904c-10.672-0.267-19.543-3.901-26.612-10.904
			c-7.07-7.003-10.705-15.873-10.904-26.612c0-4.402,0.732-8.604,2.2-12.605c1.467-4.002,3.468-7.604,6.003-10.805
			c-3.401-2.001-5.97-4.335-7.703-7.004c-1.735-2.667-2.368-5.235-1.901-7.703c1.334-3.401,4.502-5.535,9.505-6.403
			c5.002-0.866,9.67-0.8,14.006,0.2c1.801,0.468,3.835,1.335,6.104,2.602c2.267,1.268,4.401,2.735,6.402,4.401L61.772,20.646z
			 M44.164,21.846c-1.4-0.133-3.868-0.133-7.403,0l-5.902,0.4l4.902,3.701c2.867,2.201,4.935,3.502,6.203,3.902
			c1.266,0.399,3.267,0.567,6.002,0.5c2.734-0.065,4.402-0.633,5.003-1.701c0.133-1.266-1.001-2.634-3.401-4.102
			C47.166,23.08,45.365,22.18,44.164,21.846z M79.381,21.846c-1.201,0.4-3.002,1.301-5.402,2.701
			c-2.402,1.4-3.537,2.769-3.402,4.102c0.533,1.068,2.201,1.636,5.002,1.701c2.802,0.067,4.803-0.101,6.003-0.5
			c1.2-0.4,3.267-1.701,6.203-3.902l4.902-3.701l-5.903-0.4C83.248,21.713,80.781,21.713,79.381,21.846z"/>
	</g>
</g>
</svg>
