<?xml version="1.0" encoding="utf-8"?>
<!-- Generator: Adobe Illustrator 16.0.0, SVG Export Plug-In . SVG Version: 6.00 Build 0)  -->
<!DOCTYPE svg PUBLIC "-//W3C//DTD SVG 1.1//EN" "http://www.w3.org/Graphics/SVG/1.1/DTD/svg11.dtd">
<svg xmlns="http://www.w3.org/2000/svg" xmlns:xlink="http://www.w3.org/1999/xlink" version="1.1" id="Layer_1" x="0px" y="0px" width="100px" height="100px" viewBox="0 0 100 100" enable-background="new 0 0 100 100" xml:space="preserve">
<g>
			<path fill="#BCBEC0" d="M21.004,6.107h62.992c2.2,0,4.055,0.723,5.563,2.169c1.509,1.446,2.231,3.301,2.169,5.563v47.149
				c0,2.2-0.724,4.087-2.169,5.658c-1.447,1.572-3.301,2.326-5.563,2.262H68.154L52.5,84.563L36.846,68.909H21.004
				c-2.201,0-4.055-0.753-5.563-2.262c-1.509-1.51-2.233-3.395-2.169-5.658V13.839c0-2.2,0.722-4.055,2.169-5.563
				C16.886,6.767,18.742,6.044,21.004,6.107z"/>
</g>
</svg>
