<?xml version="1.0" encoding="utf-8"?>
<!-- Generator: Adobe Illustrator 16.0.0, SVG Export Plug-In . SVG Version: 6.00 Build 0)  -->
<!DOCTYPE svg PUBLIC "-//W3C//DTD SVG 1.1//EN" "http://www.w3.org/Graphics/SVG/1.1/DTD/svg11.dtd">
<svg xmlns="http://www.w3.org/2000/svg" xmlns:xlink="http://www.w3.org/1999/xlink" version="1.1" id="Layer_1" x="0px" y="0px" width="100px" height="100px" viewBox="0 0 100 100" enable-background="new 0 0 100 100" xml:space="preserve">
	<g>
			<path fill="#BCBEC0" d="M85.9,26.834l12.5,16.599v20.9H90c-0.135,3.535-1.367,6.467-3.701,8.801s-5.267,3.5-8.799,3.5
				c-3.535,0-6.468-1.166-8.801-3.5C66.366,70.8,65.133,67.868,65,64.333H40c-0.135,3.535-1.367,6.467-3.701,8.801
				s-5.267,3.5-8.799,3.5c-3.535,0-6.468-1.166-8.801-3.5C16.366,70.8,15.133,67.868,15,64.333H6.6V18.434
				c0.133-2.333,0.965-4.3,2.5-5.9c1.533-1.6,3.5-2.433,5.9-2.5H73.4v16.801H85.9z M27.5,70.532c1.799-0.133,3.299-0.766,4.5-1.898
				c1.199-1.133,1.799-2.602,1.799-4.4c0-1.801-0.6-3.266-1.799-4.4c-1.201-1.133-2.701-1.732-4.5-1.801
				C25.7,57.968,24.2,58.567,23,59.833c-1.201,1.268-1.768,2.734-1.701,4.4s0.633,3.135,1.701,4.4
				C24.065,69.899,25.565,70.532,27.5,70.532z M77.5,70.532c1.799-0.133,3.299-0.766,4.5-1.898c1.199-1.133,1.799-2.602,1.799-4.4
				c0-1.801-0.6-3.266-1.799-4.4c-1.201-1.133-2.701-1.732-4.5-1.801C75.7,57.968,74.2,58.567,73,59.833
				c-1.201,1.268-1.768,2.734-1.701,4.4s0.633,3.135,1.701,4.4C74.065,69.899,75.565,70.532,77.5,70.532z M83.799,33.033H73.4
				v10.399H92L83.799,33.033z"/>
	</g>
</svg>
